<?xml version="1.0" encoding="UTF-8"?>
<svg width="130.03mm" height="31.982mm" version="1.1" viewBox="0 0 130.03 31.982" xmlns="http://www.w3.org/2000/svg">
 <g transform="translate(-27.489 -17.598)" filter="url(#filter76)">
  <path d="m72.517 47.925h-2.8328v-8.4985h-1.4164v4.2493h-1.4164v-4.2493h-1.4164v8.4985h-2.8328v-12.748h2.8328v2.8328h1.4164v1.4164h1.4164v-1.4164h1.4164v-2.8328h2.8328zm8.4985 0h-5.6657v-1.4164h1.4164v-9.9149h-1.4164v-1.4164h5.6657v1.4164h-1.4164v9.9149h1.4164zm14.164 0h-2.8328v-4.2493h-1.4164v-1.4164h-1.4164v-1.4164h-1.4164v7.0821h-2.8328v-12.748h2.8328v2.8328h1.4164v1.4164h1.4164v1.4164h1.4164v-5.6657h2.8328z" fill="#e9efec" stroke="#1b1f2b" stroke-width="3.175" style="paint-order:stroke fill markers" aria-label="MIN SPACE"/>
  <g transform="matrix(.86923 0 0 .86923 .8435 7.3258)" stroke-width="3.6527">
   <rect x="32.481" y="13.644" width="33.141" height="33.141" fill="#e9efec" stroke="#1b1f2b" stroke-linecap="square" stroke-width="3.6527" style="font-variation-settings:'wght' 724;paint-order:stroke fill markers"/>
   <path d="m67.209 40.455-36.316-9.7309v17.159h36.316z" fill="#1b1f2b" style="font-variation-settings:'wght' 724"/>
   <path transform="matrix(.54843 0 0 .54843 32.481 13.644)" d="m43.04 26.737a12.825 12.825 0 0 1-12.825 12.825 12.825 12.825 0 0 1-12.825-12.825 12.825 12.825 0 0 1 12.825-12.825 12.825 12.825 0 0 1 12.825 12.825z" fill="#1b1f2b" stroke-width="6.6602"/>
  </g>
  <path d="m110.6 46.508h-1.4164v1.4164h-5.6657v-1.4164h-1.4164v-1.4164h2.8328v1.4164h2.8328v-2.8328h-1.4164v-1.4164h-1.4164v-1.4164h-1.4164v-1.4164h-1.4164v-2.8328h1.4164v-1.4164h5.6657v1.4164h1.4164v1.4164h-2.8328v-1.4164h-2.8328v2.8328h1.4164v1.4164h1.4164v1.4164h1.4164v1.4164h1.4164zm11.331-5.6657h-1.4164v1.4164h-4.2493v5.6657h-2.8328v-12.748h7.0821v1.4164h1.4164zm-2.8328 0v-4.2493h-2.8328v4.2493zm14.164 7.0821h-2.8328v-4.2493h-2.8328v4.2493h-2.8328v-9.9149h1.4164v-1.4164h1.4164v-1.4164h2.8328v1.4164h1.4164v1.4164h1.4164zm-2.8328-5.6657v-4.2493h-2.8328v4.2493zm14.164 4.2493h-1.4164v1.4164h-5.6657v-1.4164h-1.4164v-9.9149h1.4164v-1.4164h5.6657v1.4164h1.4164v2.8328h-2.8328v-2.8328h-2.8328v9.9149h2.8328v-2.8328h2.8328zm11.331 1.4164h-8.4985v-12.748h8.4985v1.4164h-5.6657v4.2493h4.2492v1.4164h-4.2492v4.2493h5.6657z" fill="#e9efec" stroke="#1b1f2b" stroke-width="3.175" style="paint-order:stroke fill markers"/>
 </g>
</svg>
