<?xml version="1.0" encoding="UTF-8" standalone="no"?>
<!DOCTYPE svg PUBLIC "-//W3C//DTD SVG 1.1//EN" "http://www.w3.org/Graphics/SVG/1.1/DTD/svg11.dtd">
<svg width="208.00" height="172.00" viewBox="0.00 0.00 208.00 172.00" xmlns="http://www.w3.org/2000/svg" xmlns:xlink="http://www.w3.org/1999/xlink">
<g stroke-linecap="round" id="1_Copy">
<path d="M114.38,69.03 C115.85,69.14 119.04,70.60 119.94,71.67 C120.76,72.70 121.78,76.06 121.92,77.76 C121.99,79.37 121.22,81.73 120.20,82.41 C119.13,83.07 114.85,83.98 113.09,84.05 C111.68,84.06 109.73,83.34 108.56,82.41 C107.00,81.06 104.70,78.02 104.66,76.75 C104.66,75.47 107.09,72.30 108.70,71.05 C110.11,70.03 113.00,68.99 114.38,69.03 Z" fill="none" stroke="rgb(0, 234, 255)" stroke-width="8.97" stroke-opacity="1.00" stroke-linejoin="round"/>
<path d="M103.35,86.61 C105.06,86.62 109.25,87.64 110.86,88.43 C112.57,89.32 115.75,92.13 116.36,93.42 C117.32,95.58 115.41,103.46 114.26,106.04 C112.99,108.78 108.47,112.63 106.19,113.33 C104.23,113.89 100.05,114.17 98.38,113.76 C95.99,113.13 90.85,109.08 89.40,107.18 C88.22,105.56 86.85,102.53 86.69,100.94 C86.60,99.93 87.51,97.26 88.20,95.79 C88.97,94.30 90.94,91.88 92.52,90.56 C95.48,88.16 101.63,86.63 103.35,86.61 Z" fill="none" stroke="rgb(0, 234, 255)" stroke-width="8.97" stroke-opacity="1.00" stroke-linejoin="round"/>
</g>
</svg>
