<?xml version="1.0" encoding="UTF-8" standalone="no"?>
<!DOCTYPE svg PUBLIC "-//W3C//DTD SVG 1.1//EN" "http://www.w3.org/Graphics/SVG/1.1/DTD/svg11.dtd">
<svg width="208.00" height="172.00" viewBox="0.00 0.00 208.00 172.00" xmlns="http://www.w3.org/2000/svg" xmlns:xlink="http://www.w3.org/1999/xlink">
<g stroke-linecap="round" id="1_Copy_2">
<path d="M125.42,76.98 C126.64,77.83 128.40,80.71 128.69,82.32 C128.94,84.12 128.18,86.71 127.01,87.85 C125.88,88.89 124.09,89.50 122.48,89.48 C118.68,89.32 111.94,87.02 109.32,84.91 C108.03,83.79 107.99,81.64 109.24,80.61 C111.67,78.74 119.75,76.24 122.97,76.34 C124.06,76.41 124.87,76.63 125.42,76.98 Z" fill="none" stroke="rgb(0, 234, 255)" stroke-width="9.02" stroke-opacity="1.00" stroke-linejoin="round"/>
<path d="M110.73,91.44 C111.95,92.04 116.60,94.42 117.13,95.28 C117.67,96.20 117.10,98.96 116.28,101.04 C114.83,104.43 111.60,107.84 107.55,110.65 C104.63,112.62 99.18,113.92 96.62,113.96 C93.59,113.95 84.69,110.38 84.54,109.41 C84.45,108.63 87.49,105.07 87.55,104.66 C87.57,104.50 83.03,96.44 83.32,95.25 C83.71,93.85 85.98,92.17 87.92,91.61 C92.88,90.30 100.30,88.95 102.46,88.92 C106.04,88.91 109.47,90.85 110.73,91.44 Z" fill="none" stroke="rgb(0, 234, 255)" stroke-width="9.02" stroke-opacity="1.00" stroke-linejoin="round"/>
</g>
</svg>
