<?xml version="1.0" encoding="UTF-8" standalone="no"?>
<!DOCTYPE svg PUBLIC "-//W3C//DTD SVG 1.1//EN" "http://www.w3.org/Graphics/SVG/1.1/DTD/svg11.dtd">
<svg width="208.00" height="172.00" viewBox="0.00 0.00 208.00 172.00" xmlns="http://www.w3.org/2000/svg" xmlns:xlink="http://www.w3.org/1999/xlink">
<g stroke-linecap="round" id="1_Copy_4">
<path d="M103.55,59.19 C104.71,59.22 107.27,60.70 108.11,61.83 C108.92,63.00 109.98,66.58 110.00,68.21 C109.98,69.84 108.92,73.42 108.11,74.59 C107.27,75.72 104.71,77.20 103.55,77.23 C102.38,77.20 99.82,75.72 98.99,74.59 C98.18,73.42 97.12,69.84 97.10,68.21 C97.12,66.58 98.18,63.00 98.99,61.83 C99.82,60.70 102.38,59.22 103.55,59.19 Z" fill="none" stroke="rgb(0, 234, 255)" stroke-width="10.00" stroke-opacity="1.00" stroke-linejoin="round"/>
<path d="M103.61,78.05 C105.58,77.95 108.28,78.85 109.23,79.98 C110.10,81.08 110.93,88.87 111.01,91.80 C111.14,97.36 108.21,106.58 106.87,109.93 C106.24,111.39 103.97,113.31 102.59,113.30 C101.19,113.23 99.53,111.13 98.89,109.16 C98.30,107.15 95.91,100.12 95.64,98.04 C95.35,95.68 95.79,86.35 96.42,83.60 C96.96,81.41 98.65,79.35 100.42,78.67 C101.35,78.36 102.41,78.15 103.61,78.05 Z" fill="none" stroke="rgb(0, 234, 255)" stroke-width="10.00" stroke-opacity="1.00" stroke-linejoin="round"/>
</g>
</svg>
