<?xml version="1.0" encoding="UTF-8" standalone="no"?>
<!DOCTYPE svg PUBLIC "-//W3C//DTD SVG 1.1//EN" "http://www.w3.org/Graphics/SVG/1.1/DTD/svg11.dtd">
<svg width="208.00" height="172.00" viewBox="0.00 0.00 208.00 172.00" xmlns="http://www.w3.org/2000/svg" xmlns:xlink="http://www.w3.org/1999/xlink">
<g stroke-linecap="round" id="1_Copy_9">
<path d="M106.49,66.30 C105.00,66.32 101.71,67.68 100.64,68.72 C99.60,69.79 98.24,73.08 98.22,74.57 C98.24,76.06 99.60,79.34 100.64,80.41 C101.71,81.45 105.00,82.81 106.49,82.83 C107.98,82.81 111.26,81.45 112.33,80.41 C113.37,79.34 114.73,76.06 114.76,74.57 C114.73,73.08 113.37,69.79 112.33,68.72 C111.26,67.68 107.98,66.32 106.49,66.30 Z" fill="none" stroke="rgb(0, 234, 255)" stroke-width="9.01" stroke-opacity="1.00" stroke-linejoin="round"/>
<path d="M106.90,85.12 C105.18,85.15 101.12,86.24 99.62,87.08 C98.14,87.95 95.16,90.93 94.29,92.41 C93.45,93.91 92.36,97.97 92.34,99.69 C92.36,101.41 93.45,105.47 94.29,106.97 C95.16,108.45 98.14,111.42 99.62,112.30 C101.12,113.14 105.18,114.23 106.90,114.25 C108.62,114.23 112.68,113.14 114.18,112.30 C115.66,111.42 118.63,108.45 119.51,106.97 C120.35,105.47 121.44,101.41 121.46,99.69 C121.44,97.97 120.35,93.91 119.51,92.41 C118.63,90.93 115.66,87.95 114.18,87.08 C112.68,86.24 108.62,85.15 106.90,85.12 Z" fill="none" stroke="rgb(0, 234, 255)" stroke-width="9.01" stroke-opacity="1.00" stroke-linejoin="round"/>
</g>
</svg>
