<?xml version="1.0" encoding="UTF-8" standalone="no"?>
<!DOCTYPE svg PUBLIC "-//W3C//DTD SVG 1.1//EN" "http://www.w3.org/Graphics/SVG/1.1/DTD/svg11.dtd">
<svg width="208.00" height="172.00" viewBox="0.00 0.00 208.00 172.00" xmlns="http://www.w3.org/2000/svg" xmlns:xlink="http://www.w3.org/1999/xlink">
<g stroke-linecap="round" id="1_Copy_8">
<path d="M96.62,69.03 C95.15,69.14 91.96,70.60 91.06,71.67 C90.24,72.70 89.22,76.06 89.08,77.76 C89.01,79.37 89.78,81.73 90.80,82.41 C91.87,83.07 96.15,83.98 97.91,84.05 C99.32,84.06 101.27,83.34 102.44,82.41 C104.00,81.06 106.30,78.02 106.34,76.75 C106.34,75.47 103.91,72.30 102.30,71.05 C100.89,70.03 98.00,68.99 96.62,69.03 Z" fill="none" stroke="rgb(0, 234, 255)" stroke-width="8.97" stroke-opacity="1.00" stroke-linejoin="round"/>
<path d="M107.65,86.61 C105.94,86.62 101.75,87.64 100.14,88.43 C98.43,89.32 95.25,92.13 94.64,93.42 C93.68,95.58 95.59,103.46 96.74,106.04 C98.01,108.78 102.53,112.63 104.81,113.33 C106.77,113.89 110.95,114.17 112.62,113.76 C115.01,113.13 120.15,109.08 121.60,107.18 C122.78,105.56 124.15,102.53 124.31,100.94 C124.40,99.93 123.49,97.26 122.80,95.79 C122.03,94.30 120.06,91.88 118.48,90.56 C115.52,88.16 109.37,86.63 107.65,86.61 Z" fill="none" stroke="rgb(0, 234, 255)" stroke-width="8.97" stroke-opacity="1.00" stroke-linejoin="round"/>
</g>
</svg>
