<?xml version="1.0" encoding="UTF-8" standalone="no"?>
<!DOCTYPE svg PUBLIC "-//W3C//DTD SVG 1.1//EN" "http://www.w3.org/Graphics/SVG/1.1/DTD/svg11.dtd">
<svg width="208.00" height="172.00" viewBox="0.00 0.00 208.00 172.00" xmlns="http://www.w3.org/2000/svg" xmlns:xlink="http://www.w3.org/1999/xlink">
<g stroke-linecap="round" id="1_Copy_7">
<path d="M85.58,76.98 C84.36,77.83 82.60,80.71 82.31,82.32 C82.06,84.12 82.82,86.71 83.99,87.85 C85.12,88.89 86.91,89.50 88.52,89.48 C92.32,89.32 99.06,87.02 101.68,84.91 C102.97,83.79 103.01,81.64 101.76,80.61 C99.33,78.74 91.25,76.24 88.03,76.34 C86.94,76.41 86.13,76.63 85.58,76.98 Z" fill="none" stroke="rgb(0, 234, 255)" stroke-width="9.02" stroke-opacity="1.00" stroke-linejoin="round"/>
<path d="M100.27,91.44 C99.05,92.04 94.40,94.42 93.87,95.28 C93.33,96.20 93.90,98.96 94.72,101.04 C96.17,104.43 99.40,107.84 103.45,110.65 C106.37,112.62 111.82,113.92 114.38,113.96 C117.41,113.95 126.31,110.38 126.46,109.41 C126.55,108.63 123.51,105.07 123.45,104.66 C123.43,104.50 127.97,96.44 127.68,95.25 C127.29,93.85 125.02,92.17 123.08,91.61 C118.12,90.30 110.70,88.95 108.54,88.92 C104.96,88.91 101.53,90.85 100.27,91.44 Z" fill="none" stroke="rgb(0, 234, 255)" stroke-width="9.02" stroke-opacity="1.00" stroke-linejoin="round"/>
</g>
</svg>
