<?xml version="1.0" encoding="UTF-8" standalone="no"?>
<!DOCTYPE svg PUBLIC "-//W3C//DTD SVG 1.1//EN" "http://www.w3.org/Graphics/SVG/1.1/DTD/svg11.dtd">
<svg width="208.00" height="172.00" viewBox="0.00 0.00 208.00 172.00" xmlns="http://www.w3.org/2000/svg" xmlns:xlink="http://www.w3.org/1999/xlink">
<g stroke-linecap="round" id="1_Copy_6">
<path d="M102.06,78.40 C100.05,79.37 97.00,81.39 95.97,82.50 C94.86,83.76 93.63,86.78 94.04,87.59 C94.41,88.25 97.81,89.59 98.64,89.91 C101.45,90.86 103.06,91.14 105.05,90.83 C107.55,90.41 110.57,89.19 112.23,87.90 C114.13,86.35 115.83,84.13 115.88,82.92 C115.88,81.72 114.22,79.66 112.40,78.37 C109.45,76.42 104.38,77.32 102.06,78.40 Z" fill="none" stroke="rgb(0, 234, 255)" stroke-width="10.00" stroke-opacity="1.00" stroke-linejoin="round"/>
<path d="M97.01,95.45 C94.67,95.98 87.55,99.11 85.64,100.90 C84.40,102.13 84.66,103.77 86.23,105.08 C87.23,105.88 94.73,111.67 96.57,112.34 C98.55,113.03 105.80,113.13 108.84,113.18 C110.67,113.16 113.56,112.66 115.66,111.97 C118.02,111.17 120.38,109.77 121.95,108.27 C124.11,106.15 128.58,101.01 128.63,98.80 C128.61,97.62 128.15,96.65 127.25,95.90 C125.98,94.94 100.05,94.80 97.01,95.45 Z" fill="none" stroke="rgb(0, 234, 255)" stroke-width="10.00" stroke-opacity="1.00" stroke-linejoin="round"/>
</g>
</svg>
