<?xml version="1.0" encoding="UTF-8" standalone="no"?>
<!DOCTYPE svg PUBLIC "-//W3C//DTD SVG 1.1//EN" "http://www.w3.org/Graphics/SVG/1.1/DTD/svg11.dtd">
<svg width="208.00" height="172.00" viewBox="0.00 0.00 208.00 172.00" xmlns="http://www.w3.org/2000/svg" xmlns:xlink="http://www.w3.org/1999/xlink">
<g stroke-linecap="round" id="1_Copy_5">
<path d="M107.45,59.19 C106.29,59.22 103.73,60.70 102.89,61.83 C102.08,63.00 101.02,66.58 101.00,68.21 C101.02,69.84 102.08,73.42 102.89,74.59 C103.73,75.72 106.29,77.20 107.45,77.23 C108.62,77.20 111.18,75.72 112.01,74.59 C112.82,73.42 113.88,69.84 113.90,68.21 C113.88,66.58 112.82,63.00 112.01,61.83 C111.18,60.70 108.62,59.22 107.45,59.19 Z" fill="none" stroke="rgb(0, 234, 255)" stroke-width="10.00" stroke-opacity="1.00" stroke-linejoin="round"/>
<path d="M107.39,78.05 C105.42,77.95 102.72,78.85 101.77,79.98 C100.90,81.08 100.07,88.87 99.99,91.80 C99.86,97.36 102.79,106.58 104.13,109.93 C104.76,111.39 107.03,113.31 108.41,113.30 C109.81,113.23 111.47,111.13 112.11,109.16 C112.70,107.15 115.09,100.12 115.36,98.04 C115.65,95.68 115.21,86.35 114.58,83.60 C114.04,81.41 112.35,79.35 110.58,78.67 C109.65,78.36 108.59,78.15 107.39,78.05 Z" fill="none" stroke="rgb(0, 234, 255)" stroke-width="10.00" stroke-opacity="1.00" stroke-linejoin="round"/>
</g>
</svg>
