<?xml version="1.0" encoding="UTF-8" standalone="no"?>
<!DOCTYPE svg PUBLIC "-//W3C//DTD SVG 1.1//EN" "http://www.w3.org/Graphics/SVG/1.1/DTD/svg11.dtd">
<svg width="208.00" height="172.00" viewBox="0.00 0.00 208.00 172.00" xmlns="http://www.w3.org/2000/svg" xmlns:xlink="http://www.w3.org/1999/xlink">
<g stroke-linecap="round" id="2">
<path d="M104.87,95.89 C107.60,95.80 114.81,96.76 118.11,97.96 C119.79,98.60 123.80,100.74 124.83,101.67 C126.31,103.06 127.30,105.49 127.12,107.13 C126.85,108.94 125.89,111.35 125.03,112.08 C123.63,113.21 116.51,113.19 113.21,113.17 C105.80,113.15 86.73,113.17 85.19,112.96 C83.82,112.72 82.25,110.80 81.97,108.91 C81.73,106.89 83.03,103.55 84.68,101.73 C86.08,100.26 88.80,98.50 90.36,98.04 C91.87,97.62 102.54,95.98 104.87,95.89 Z" fill="none" stroke="rgb(255, 55, 0)" stroke-width="10.00" stroke-opacity="1.00" stroke-linejoin="round"/>
<path d="M105.80,97.68 C97.41,98.64 90.98,99.76 89.30,100.75 C88.45,101.28 88.32,102.44 89.02,102.97 C90.42,103.97 98.96,105.07 103.44,104.91 C107.47,104.74 112.61,103.15 112.81,102.06 C112.95,100.89 108.38,99.29 105.28,99.48 C101.48,99.75 93.97,101.99 92.58,103.37 C92.02,103.96 91.97,104.96 92.42,105.30 C94.89,107.04 111.72,104.07 112.87,103.23 C113.61,102.64 112.10,101.84 109.95,101.60 C105.16,101.09 92.10,102.06 89.01,103.30 C87.92,103.74 86.85,104.70 86.92,105.18 C87.05,105.79 89.72,106.91 91.95,107.25 C96.93,107.97 110.74,106.94 114.57,105.51 C115.29,105.22 116.17,104.46 116.15,104.11 C116.06,103.42 112.83,102.28 110.23,101.99 C107.62,101.71 101.98,101.89 99.46,102.33 C96.53,102.85 91.74,105.06 92.17,106.30 C92.50,107.06 94.39,107.94 96.16,108.17 C100.08,108.64 107.14,107.43 108.47,106.55 C109.25,106.02 109.05,104.85 108.25,104.37 C106.65,103.45 100.68,103.50 98.08,104.75 C96.70,105.43 95.87,106.71 95.96,107.24 C96.11,107.73 97.27,108.60 98.70,108.85 C101.88,109.36 111.49,107.82 113.38,106.21 C114.18,105.49 114.12,104.10 113.50,103.53 C112.43,102.60 108.68,102.36 106.68,103.18 C105.65,103.61 104.33,104.81 104.26,105.42 C104.17,106.58 107.25,108.04 109.51,108.12 C112.40,108.20 117.65,106.57 117.41,105.31 C117.13,104.21 111.87,102.32 109.67,102.65 C108.80,102.80 107.45,103.44 107.19,103.88 C106.69,104.81 109.25,106.15 111.53,106.31 C114.21,106.49 119.67,105.59 120.34,104.56 C120.88,103.62 116.94,102.29 114.70,102.11 C112.45,101.95 109.24,102.89 109.92,104.11 C110.68,105.36 115.96,107.17 118.25,107.24 C121.01,107.30 125.63,105.61 125.70,104.40 C125.70,103.91 124.17,102.81 124.02,102.69 C123.86,102.56 121.28,102.53 119.44,102.63 C119.01,102.65 118.83,102.70 118.90,102.77" fill="none" stroke="rgb(255, 55, 0)" stroke-width="15.00" stroke-opacity="1.00" stroke-linejoin="round"/>
</g>
</svg>
