<?xml version="1.0" encoding="UTF-8" standalone="no"?>
<!DOCTYPE svg PUBLIC "-//W3C//DTD SVG 1.1//EN" "http://www.w3.org/Graphics/SVG/1.1/DTD/svg11.dtd">
<svg width="208.00" height="172.00" viewBox="0.00 0.00 208.00 172.00" xmlns="http://www.w3.org/2000/svg" xmlns:xlink="http://www.w3.org/1999/xlink">
<g stroke-linecap="round" id="1a">
<path d="M103.72,90.37 C108.23,90.31 114.54,91.14 117.32,92.88 C119.97,94.60 124.83,100.25 125.98,102.94 C126.59,104.47 126.51,107.11 125.83,108.47 C125.28,109.45 122.86,112.11 121.93,112.53 C119.98,113.36 112.75,113.29 107.18,113.59 C103.49,113.77 87.43,113.27 86.97,113.20 C85.74,112.98 83.77,111.63 82.88,110.38 C81.96,108.99 80.97,106.09 81.07,104.75 C81.30,102.56 85.95,96.63 88.09,94.72 C90.66,92.51 95.33,90.89 100.01,90.55 C101.65,90.45 102.89,90.39 103.72,90.37 Z" fill="none" stroke="rgb(255, 55, 0)" stroke-width="10.00" stroke-opacity="1.00" stroke-linejoin="round"/>
<path d="M103.87,91.03 C96.27,92.55 90.44,94.32 88.93,95.87 C88.15,96.69 88.03,98.53 88.67,99.36 C89.94,100.93 97.68,102.65 101.73,102.40 C103.89,102.25 106.71,101.45 107.69,100.95 C108.63,100.42 110.10,98.93 110.21,97.93 C110.27,97.02 109.12,95.33 108.16,94.73 C107.20,94.16 104.90,93.71 103.40,93.87 C101.83,94.06 98.10,95.24 96.42,96.11 C94.70,97.01 92.50,98.94 91.90,99.99 C91.38,100.91 91.35,102.48 91.75,103.02 C92.60,104.07 100.34,103.81 105.18,102.33 C107.40,101.65 109.94,100.19 110.27,99.77 C110.93,98.84 109.57,97.58 107.63,97.20 C105.65,96.83 100.11,96.80 97.32,97.15 C94.46,97.53 90.00,98.94 88.66,99.87 C87.68,100.57 86.71,102.07 86.77,102.82 C86.89,103.79 89.31,105.55 91.33,106.09 C93.49,106.63 98.95,106.83 101.98,106.45 C105.09,106.04 110.02,104.51 111.81,103.34 C112.46,102.90 113.25,101.69 113.24,101.14 C113.16,100.06 110.23,98.27 107.88,97.82 C105.51,97.38 100.40,97.66 98.13,98.35 C97.22,98.63 94.80,99.70 93.63,100.62 C92.30,101.70 91.39,103.94 91.52,104.59 C91.82,105.78 93.54,107.16 95.14,107.52 C98.69,108.26 105.08,106.37 106.28,104.99 C106.99,104.14 106.81,102.31 106.09,101.55 C105.41,100.88 103.35,100.12 102.16,100.12 C100.86,100.15 98.01,101.20 96.87,102.15 C95.63,103.23 94.88,105.23 94.96,106.06 C95.09,106.84 96.14,108.21 97.44,108.60 C98.77,108.96 102.53,108.79 104.54,108.25 C106.72,107.63 109.88,105.70 110.73,104.45 C111.46,103.31 111.40,101.14 110.84,100.24 C110.36,99.51 108.97,98.66 108.22,98.57 C107.42,98.49 105.54,99.06 104.66,99.68 C103.73,100.37 102.54,102.25 102.47,103.21 C102.39,105.03 105.18,107.32 107.23,107.45 C108.38,107.51 110.92,107.01 112.03,106.42 C113.23,105.76 114.48,103.98 114.38,103.04 C114.27,102.27 112.87,100.51 111.39,99.58 C110.22,98.86 108.17,98.65 107.37,98.85 C106.58,99.08 105.36,100.09 105.12,100.79 C104.67,102.25 106.99,104.35 109.05,104.61 C111.48,104.88 116.42,103.47 117.03,101.85 C117.52,100.37 113.95,98.28 111.92,98.00 C111.02,97.89 109.30,98.04 108.65,98.36 C107.89,98.76 107.29,100.20 107.60,101.14 C108.29,103.11 113.07,105.96 115.14,106.07 C116.26,106.11 118.76,105.46 119.79,104.82 C120.85,104.14 121.85,102.52 121.89,101.61 C121.89,100.82 120.48,99.08 120.37,98.91 C120.22,98.71 117.88,98.67 116.21,98.82 C115.82,98.85 115.66,98.92 115.73,99.03" fill="none" stroke="rgb(255, 55, 0)" stroke-width="15.00" stroke-opacity="1.00" stroke-linejoin="round"/>
</g>
</svg>
