<?xml version="1.0" encoding="UTF-8" standalone="no"?>
<!DOCTYPE svg PUBLIC "-//W3C//DTD SVG 1.1//EN" "http://www.w3.org/Graphics/SVG/1.1/DTD/svg11.dtd">
<svg width="208.00" height="172.00" viewBox="0.00 0.00 208.00 172.00" xmlns="http://www.w3.org/2000/svg" xmlns:xlink="http://www.w3.org/1999/xlink">
<g stroke-linecap="round" id="1b">
<path d="M103.72,94.06 C108.31,93.99 114.38,94.69 117.81,96.33 C119.26,97.07 122.84,99.37 123.78,100.33 C125.37,102.05 127.08,105.64 126.91,107.32 C126.68,109.06 124.26,112.18 122.62,113.12 C121.34,113.79 114.31,113.72 110.73,113.86 C105.12,114.12 101.80,114.12 96.04,113.87 C92.22,113.73 85.18,113.71 84.03,112.87 C82.62,111.74 80.84,108.04 80.96,106.18 C81.10,104.56 83.23,101.29 84.88,99.71 C86.85,97.92 92.95,94.96 96.45,94.50 C97.57,94.36 102.57,94.08 103.72,94.06 Z" fill="none" stroke="rgb(255, 55, 0)" stroke-width="10.00" stroke-opacity="1.00" stroke-linejoin="round"/>
<path d="M103.87,94.63 C96.27,95.94 90.44,97.45 88.93,98.79 C88.15,99.50 88.03,101.07 88.67,101.79 C89.94,103.14 97.68,104.62 101.73,104.40 C103.89,104.27 106.71,103.59 107.69,103.15 C108.63,102.70 110.10,101.42 110.21,100.56 C110.27,99.78 109.12,98.32 108.16,97.81 C106.20,96.81 99.95,97.43 96.42,98.99 C94.70,99.77 92.50,101.43 91.90,102.33 C91.38,103.13 91.35,104.48 91.75,104.94 C92.60,105.84 100.34,105.62 105.18,104.35 C107.40,103.76 109.94,102.50 110.27,102.14 C110.93,101.34 109.57,100.26 107.63,99.93 C103.29,99.25 91.46,100.56 88.66,102.23 C87.68,102.83 86.71,104.12 86.77,104.77 C86.89,105.60 89.31,107.11 91.33,107.57 C93.49,108.04 98.95,108.21 101.98,107.89 C105.09,107.53 110.02,106.22 111.81,105.21 C112.46,104.83 113.25,103.80 113.24,103.32 C113.16,102.39 110.23,100.85 107.88,100.46 C105.51,100.09 100.40,100.33 98.13,100.92 C95.47,101.62 91.14,104.61 91.52,106.28 C91.82,107.31 93.54,108.50 95.14,108.81 C98.69,109.44 105.08,107.82 106.28,106.63 C106.99,105.90 106.81,104.33 106.09,103.68 C105.41,103.10 103.35,102.44 102.16,102.44 C100.86,102.47 98.01,103.37 96.87,104.19 C95.63,105.12 94.88,106.84 94.96,107.55 C95.09,108.22 96.14,109.40 97.44,109.73 C98.77,110.05 102.53,109.90 104.54,109.43 C106.72,108.90 109.88,107.24 110.73,106.17 C111.46,105.19 111.40,103.32 110.84,102.54 C109.87,101.29 106.47,100.96 104.66,102.07 C103.73,102.66 102.54,104.27 102.47,105.10 C102.39,106.67 105.18,108.64 107.23,108.75 C108.38,108.79 110.92,108.37 112.03,107.86 C113.23,107.30 114.48,105.76 114.38,104.95 C114.27,104.30 112.87,102.78 111.39,101.98 C109.36,100.91 105.60,101.80 105.12,103.02 C104.67,104.27 106.99,106.08 109.05,106.30 C111.48,106.54 116.42,105.33 117.03,103.93 C118.03,101.34 109.89,100.40 108.65,100.93 C107.89,101.27 107.29,102.51 107.60,103.33 C108.29,105.01 113.07,107.46 115.14,107.56 C116.26,107.59 118.76,107.04 119.79,106.49 C120.85,105.90 121.85,104.51 121.89,103.72 C121.89,103.05 120.48,101.55 120.37,101.40 C120.22,101.23 117.88,101.19 116.21,101.32 C115.82,101.35 115.66,101.42 115.73,101.51" fill="none" stroke="rgb(255, 55, 0)" stroke-width="15.00" stroke-opacity="1.00" stroke-linejoin="round"/>
</g>
</svg>
