<?xml version="1.0" encoding="UTF-8" standalone="no"?>
<!DOCTYPE svg PUBLIC "-//W3C//DTD SVG 1.1//EN" "http://www.w3.org/Graphics/SVG/1.1/DTD/svg11.dtd">
<svg width="208.00" height="172.00" viewBox="0.00 0.00 208.00 172.00" xmlns="http://www.w3.org/2000/svg" xmlns:xlink="http://www.w3.org/1999/xlink">
<g stroke-linecap="round" id="1_Copy_2">
<path d="M103.84,80.14 C107.00,80.09 113.03,82.15 115.38,84.45 C117.79,86.89 120.81,92.38 121.85,96.19 C122.31,98.01 122.26,101.20 121.66,103.02 C120.67,105.82 115.47,111.43 113.36,112.50 C111.02,113.64 103.83,114.49 100.55,114.11 C96.76,113.62 91.73,111.26 89.47,108.90 C87.44,106.70 85.54,100.65 85.60,98.38 C85.76,95.26 89.63,88.31 91.85,85.62 C93.13,84.11 95.75,82.15 97.40,81.47 C98.76,80.94 102.42,80.19 103.84,80.14 Z" fill="none" stroke="rgb(255, 55, 0)" stroke-width="10.00" stroke-opacity="1.00" stroke-linejoin="round"/>
<path d="M103.96,83.19 C100.12,84.30 95.60,85.90 93.95,86.91 C92.68,87.72 91.06,89.63 90.75,90.61 C90.41,91.76 90.94,94.08 91.75,95.01 C92.56,95.90 95.32,97.22 96.90,97.59 C100.60,98.41 106.34,97.05 107.72,95.59 C108.76,94.44 109.50,92.17 109.27,90.93 C109.03,89.80 107.67,87.91 106.78,87.36 C105.85,86.83 103.64,86.75 102.18,87.24 C100.67,87.77 97.54,89.73 96.29,90.97 C95.12,92.18 93.70,94.80 93.45,96.00 C93.24,97.09 93.59,98.85 94.10,99.33 C94.67,99.83 96.95,100.09 98.75,99.81 C100.82,99.46 105.38,97.87 106.98,96.81 C108.23,95.97 109.67,94.24 109.73,93.46 C109.76,92.50 107.37,91.10 105.32,90.82 C103.20,90.57 98.30,91.03 96.13,91.71 C93.97,92.41 91.04,94.47 90.09,95.90 C89.68,96.55 89.28,98.65 89.78,99.76 C90.38,101.00 93.18,102.86 95.23,103.30 C97.37,103.73 102.38,103.34 104.86,102.56 C107.51,101.69 110.65,99.42 111.26,98.46 C112.15,96.92 111.43,94.24 109.95,93.18 C108.47,92.16 104.27,91.38 102.11,91.74 C100.00,92.11 95.58,94.69 94.31,97.11 C93.67,98.36 93.39,100.98 93.76,102.07 C94.19,103.24 96.42,104.72 98.00,104.90 C99.56,105.05 102.67,104.29 104.12,103.38 C104.76,102.96 106.21,101.22 106.46,100.12 C106.70,98.96 105.96,96.80 105.21,96.06 C104.47,95.37 102.50,94.85 101.42,95.16 C100.20,95.53 97.90,97.54 97.16,99.00 C96.51,100.32 96.34,102.72 96.49,103.36 C96.85,104.71 98.39,106.12 99.72,106.33 C101.12,106.52 104.63,105.65 106.22,104.66 C107.88,103.59 109.94,100.69 110.27,99.07 C110.53,97.66 109.98,95.11 109.42,94.26 C108.92,93.54 107.66,92.87 106.98,92.97 C106.23,93.10 104.57,94.35 103.92,95.37 C103.23,96.49 102.67,98.97 102.84,100.20 C103.01,101.30 103.94,103.06 104.59,103.61 C105.21,104.12 106.82,104.58 107.75,104.49 C108.85,104.37 111.00,103.24 111.79,102.25 C112.60,101.19 113.03,98.82 112.65,97.63 C112.27,96.52 110.23,93.96 109.22,93.46 C108.30,93.03 106.82,93.33 106.33,93.70 C104.93,94.80 104.98,98.72 106.26,99.86 C107.36,100.80 111.56,101.00 113.27,99.84 C114.21,99.16 115.29,97.23 115.21,96.24 C115.02,94.44 111.60,92.23 110.08,92.14 C109.29,92.11 107.93,92.63 107.49,93.27 C107.01,94.04 107.01,96.29 107.54,97.58 C108.08,98.83 109.83,100.91 110.84,101.63 C111.76,102.26 113.56,102.81 114.50,102.66 C115.54,102.47 117.58,101.16 118.29,100.14 C118.96,99.13 119.36,96.89 119.19,96.01 C118.90,94.64 117.79,93.15 117.50,93.14 C116.41,93.11 115.40,93.16 114.45,93.29 C114.12,93.34 113.98,93.43 114.04,93.58" fill="none" stroke="rgb(255, 55, 0)" stroke-width="15.00" stroke-opacity="1.00" stroke-linejoin="round"/>
</g>
</svg>
