<?xml version="1.0" encoding="UTF-8" standalone="no"?>
<!DOCTYPE svg PUBLIC "-//W3C//DTD SVG 1.1//EN" "http://www.w3.org/Graphics/SVG/1.1/DTD/svg11.dtd">
<svg width="208.00" height="172.00" viewBox="0.00 0.00 208.00 172.00" xmlns="http://www.w3.org/2000/svg" xmlns:xlink="http://www.w3.org/1999/xlink">
<g stroke-linecap="round" id="3">
<path d="M104.94,87.43 C107.27,87.32 113.48,88.78 116.19,90.62 C117.66,91.63 119.90,93.76 121.02,95.15 C122.27,96.79 123.40,99.03 123.70,100.74 C123.96,102.39 123.71,106.72 123.27,109.13 C122.79,111.43 120.89,113.62 118.93,114.03 C118.20,114.17 89.55,113.91 89.32,113.86 C87.52,113.47 85.93,111.36 85.68,109.28 C85.25,104.68 86.39,98.95 88.27,95.98 C90.19,93.12 94.80,89.67 98.46,88.65 C100.56,88.10 103.59,87.51 104.94,87.43 Z" fill="none" stroke="rgb(255, 55, 0)" stroke-width="10.00" stroke-opacity="1.00" stroke-linejoin="round"/>
<path d="M103.66,90.18 C99.30,91.12 95.03,92.22 93.33,92.98 C92.02,93.58 90.36,95.02 90.03,95.76 C89.68,96.62 90.22,98.37 91.06,99.07 C92.71,100.39 100.19,101.62 103.49,101.07 C104.99,100.80 107.04,99.88 107.54,99.50 C108.61,98.64 109.37,96.93 109.13,96.00 C108.89,95.15 107.49,93.73 106.57,93.31 C104.69,92.52 98.40,94.09 95.75,96.03 C94.54,96.94 93.08,98.91 92.82,99.81 C92.60,100.63 92.97,101.95 93.48,102.31 C94.71,103.09 103.36,102.06 106.78,100.42 C108.07,99.79 109.55,98.48 109.61,97.90 C109.64,97.18 107.18,96.12 105.06,95.92 C102.87,95.73 97.82,96.07 95.58,96.58 C93.36,97.11 90.33,98.66 89.35,99.73 C88.93,100.22 88.52,101.80 89.03,102.63 C89.65,103.57 92.54,104.97 94.65,105.30 C96.86,105.62 102.03,105.33 104.59,104.74 C107.32,104.09 110.56,102.38 111.19,101.66 C112.11,100.50 111.37,98.49 109.84,97.69 C108.31,96.92 103.98,96.33 101.75,96.61 C99.57,96.89 95.02,98.82 93.70,100.64 C93.04,101.58 92.75,103.56 93.13,104.37 C93.58,105.25 95.88,106.37 97.51,106.50 C99.12,106.61 102.33,106.04 103.83,105.36 C104.48,105.04 105.98,103.73 106.24,102.91 C106.48,102.04 105.72,100.41 104.94,99.85 C104.18,99.34 102.16,98.95 101.04,99.18 C99.78,99.46 97.41,100.97 96.64,102.06 C95.97,103.06 95.80,104.86 95.95,105.35 C96.32,106.36 97.91,107.42 99.29,107.58 C100.73,107.72 104.35,107.07 105.99,106.32 C107.71,105.52 109.83,103.33 110.17,102.12 C110.44,101.05 109.87,99.14 109.29,98.50 C108.78,97.96 107.48,97.46 106.77,97.53 C106.00,97.63 104.29,98.57 103.62,99.34 C102.91,100.18 102.33,102.04 102.51,102.97 C102.86,104.64 105.64,106.33 107.57,106.20 C108.70,106.11 110.93,105.25 111.74,104.51 C112.58,103.71 113.02,101.93 112.63,101.04 C112.23,100.20 110.12,98.27 109.09,97.90 C107.45,97.34 104.66,98.90 104.67,100.41 C104.71,101.86 107.17,103.42 109.11,103.50 C110.17,103.53 112.34,103.16 113.26,102.69 C114.24,102.19 115.35,100.73 115.27,99.99 C115.07,98.64 111.54,96.98 109.97,96.91 C109.16,96.88 107.75,97.28 107.30,97.76 C106.80,98.33 106.80,100.03 107.35,100.99 C108.44,102.85 112.71,105.03 114.53,104.82 C115.61,104.67 117.71,103.69 118.44,102.92 C119.14,102.16 119.55,100.48 119.37,99.82 C119.08,98.79 117.93,97.67 117.63,97.66 C116.51,97.64 115.46,97.68 114.48,97.77 C114.14,97.81 114.00,97.88 114.06,97.99" fill="none" stroke="rgb(255, 55, 0)" stroke-width="15.00" stroke-opacity="1.00" stroke-linejoin="round"/>
</g>
</svg>
