<?xml version="1.0" encoding="UTF-8" standalone="no"?>
<!DOCTYPE svg PUBLIC "-//W3C//DTD SVG 1.1//EN" "http://www.w3.org/Graphics/SVG/1.1/DTD/svg11.dtd">
<svg width="208.00" height="172.00" viewBox="0.00 0.00 208.00 172.00" xmlns="http://www.w3.org/2000/svg" xmlns:xlink="http://www.w3.org/1999/xlink">
<g stroke-linecap="round" id="1_Copy_6">
<path d="M103.56,78.90 C106.20,79.04 112.08,80.74 114.63,82.34 C116.11,83.31 118.27,85.23 119.12,86.41 C119.92,87.59 121.31,90.93 121.70,92.57 C122.09,94.36 122.09,97.44 121.70,99.19 C120.85,102.66 117.13,107.98 113.93,110.39 C111.08,112.46 105.27,113.90 102.15,113.89 C99.10,113.82 93.42,112.27 91.01,110.33 C88.45,108.19 84.89,102.86 84.04,99.84 C83.62,98.18 83.61,95.06 84.04,93.19 C84.47,91.44 85.98,87.87 86.87,86.56 C88.65,84.04 94.62,80.09 97.59,79.42 C98.86,79.16 102.34,78.86 103.56,78.90 Z" fill="none" stroke="rgb(255, 55, 0)" stroke-width="10.00" stroke-opacity="1.00" stroke-linejoin="round"/>
<path d="M103.96,80.86 C100.12,82.05 95.60,83.74 93.95,84.81 C92.68,85.67 91.06,87.69 90.75,88.73 C90.41,89.95 90.94,92.41 91.75,93.40 C92.56,94.34 95.32,95.74 96.90,96.13 C98.64,96.54 102.19,96.61 103.79,96.22 C105.25,95.84 107.24,94.55 107.72,94.01 C108.76,92.79 109.50,90.38 109.27,89.07 C109.03,87.88 107.67,85.87 106.78,85.29 C105.85,84.72 103.64,84.64 102.18,85.16 C100.67,85.72 97.54,87.80 96.29,89.12 C95.12,90.39 93.70,93.17 93.45,94.45 C93.24,95.61 93.59,97.47 94.10,97.97 C94.67,98.50 96.95,98.79 98.75,98.49 C100.82,98.12 105.38,96.42 106.98,95.30 C108.23,94.42 109.67,92.58 109.73,91.76 C109.76,90.74 107.37,89.25 105.32,88.96 C103.20,88.69 98.30,89.18 96.13,89.90 C93.97,90.64 91.04,92.82 90.09,94.34 C89.68,95.03 89.28,97.26 89.78,98.43 C90.38,99.75 93.18,101.71 95.23,102.18 C97.37,102.64 102.38,102.23 104.86,101.40 C107.51,100.47 110.65,98.07 111.26,97.06 C112.15,95.42 111.43,92.58 109.95,91.46 C108.47,90.38 104.27,89.54 102.11,89.93 C100.00,90.33 95.58,93.06 94.31,95.62 C93.67,96.95 93.39,99.73 93.76,100.88 C94.19,102.12 96.42,103.69 98.00,103.88 C99.56,104.04 102.67,103.23 104.12,102.27 C104.76,101.82 106.21,99.98 106.46,98.81 C106.70,97.59 105.96,95.29 105.21,94.51 C104.47,93.78 102.50,93.23 101.42,93.55 C100.20,93.95 97.90,96.08 97.16,97.62 C96.51,99.03 96.34,101.56 96.49,102.25 C96.85,103.68 98.39,105.18 99.72,105.40 C101.12,105.60 104.63,104.67 106.22,103.62 C107.88,102.49 109.94,99.41 110.27,97.70 C110.53,96.20 109.98,93.50 109.42,92.60 C108.92,91.84 107.66,91.13 106.98,91.23 C106.23,91.37 104.57,92.70 103.92,93.78 C103.23,94.97 102.67,97.59 102.84,98.90 C103.01,100.06 103.94,101.93 104.59,102.52 C105.21,103.06 106.82,103.54 107.75,103.45 C108.85,103.32 111.00,102.12 111.79,101.07 C112.60,99.95 113.03,97.43 112.65,96.17 C112.27,95.00 110.23,92.28 109.22,91.76 C108.30,91.30 106.82,91.62 106.33,92.01 C104.93,93.17 104.98,97.33 106.26,98.54 C107.36,99.54 111.56,99.75 113.27,98.51 C114.21,97.80 115.29,95.75 115.21,94.70 C115.02,92.80 111.60,90.45 110.08,90.35 C109.29,90.32 107.93,90.87 107.49,91.56 C107.01,92.36 107.01,94.75 107.54,96.12 C108.08,97.45 109.83,99.65 110.84,100.42 C111.76,101.09 113.56,101.66 114.50,101.50 C115.54,101.30 117.58,99.91 118.29,98.84 C118.96,97.76 119.36,95.38 119.19,94.46 C118.90,93.01 117.79,91.42 117.50,91.41 C116.41,91.38 115.40,91.44 114.45,91.58 C114.12,91.63 113.98,91.73 114.04,91.88" fill="none" stroke="rgb(255, 55, 0)" stroke-width="15.00" stroke-opacity="1.00" stroke-linejoin="round"/>
</g>
</svg>
