<?xml version="1.0" encoding="UTF-8" standalone="no"?>
<!DOCTYPE svg PUBLIC "-//W3C//DTD SVG 1.1//EN" "http://www.w3.org/Graphics/SVG/1.1/DTD/svg11.dtd">
<svg width="208.00" height="172.00" viewBox="0.00 0.00 208.00 172.00" xmlns="http://www.w3.org/2000/svg" xmlns:xlink="http://www.w3.org/1999/xlink">
<g stroke-linecap="round" id="1_Copz">
<path d="M103.62,86.55 C106.99,86.44 113.80,88.03 116.50,89.76 C119.50,91.77 123.99,96.95 125.12,100.43 C125.74,102.49 125.53,106.00 124.67,107.64 C124.11,108.62 120.88,111.17 119.50,111.96 C116.18,113.77 109.37,114.40 104.19,114.21 C100.45,114.05 92.98,113.13 89.28,112.11 C86.88,111.41 84.40,110.14 83.55,109.02 C82.75,107.90 82.37,105.28 82.51,102.96 C82.68,100.98 83.60,98.15 84.68,96.35 C85.51,95.01 88.44,91.92 89.78,90.92 C92.84,88.72 100.71,86.68 103.62,86.55 Z" fill="none" stroke="rgb(255, 55, 0)" stroke-width="10.00" stroke-opacity="1.00" stroke-linejoin="round"/>
<path d="M103.96,86.51 C100.12,87.53 95.60,89.00 93.95,89.92 C92.68,90.66 91.06,92.41 90.75,93.31 C90.41,94.36 90.94,96.48 91.75,97.34 C93.35,98.94 100.60,100.44 103.79,99.77 C105.25,99.44 107.24,98.33 107.72,97.86 C108.76,96.81 109.50,94.73 109.27,93.60 C109.03,92.57 107.67,90.83 106.78,90.33 C105.85,89.84 103.64,89.78 102.18,90.22 C100.67,90.70 97.54,92.50 96.29,93.64 C95.12,94.74 93.70,97.14 93.45,98.24 C93.24,99.24 93.59,100.85 94.10,101.28 C94.67,101.74 96.95,101.99 98.75,101.73 C100.82,101.41 105.38,99.95 106.98,98.98 C108.23,98.22 109.67,96.63 109.73,95.92 C109.76,95.04 107.37,93.75 105.32,93.50 C103.20,93.27 98.30,93.69 96.13,94.31 C93.97,94.96 91.04,96.84 90.09,98.14 C89.68,98.74 89.28,100.67 89.78,101.68 C90.38,102.82 93.18,104.51 95.23,104.92 C97.37,105.31 102.38,104.96 104.86,104.24 C107.51,103.44 110.65,101.37 111.26,100.49 C112.15,99.08 111.43,96.63 109.95,95.66 C108.47,94.73 104.27,94.01 102.11,94.34 C100.00,94.68 95.58,97.04 94.31,99.25 C93.67,100.40 93.39,102.80 93.76,103.79 C94.19,104.86 96.42,106.22 98.00,106.38 C99.56,106.52 102.67,105.82 104.12,104.99 C104.76,104.61 106.21,103.01 106.46,102.01 C106.70,100.95 105.96,98.97 105.21,98.29 C104.47,97.66 102.50,97.19 101.42,97.47 C100.20,97.81 97.90,99.65 97.16,100.98 C96.51,102.19 96.34,104.38 96.49,104.97 C96.85,106.21 98.39,107.50 99.72,107.70 C101.12,107.86 104.63,107.07 106.22,106.16 C107.88,105.19 109.94,102.53 110.27,101.05 C110.53,99.75 109.98,97.43 109.42,96.64 C108.92,95.99 107.66,95.37 106.98,95.46 C106.23,95.58 104.57,96.73 103.92,97.66 C103.23,98.69 102.67,100.96 102.84,102.09 C103.19,104.11 105.88,106.17 107.75,106.01 C108.85,105.90 111.00,104.86 111.79,103.96 C112.60,102.99 113.03,100.82 112.65,99.73 C112.27,98.72 110.23,96.37 109.22,95.92 C108.30,95.52 106.82,95.80 106.33,96.13 C104.93,97.14 104.98,100.73 106.26,101.78 C107.36,102.64 111.56,102.82 113.27,101.75 C114.21,101.13 115.29,99.36 115.21,98.45 C115.02,96.81 111.60,94.79 110.08,94.71 C109.29,94.68 107.93,95.15 107.49,95.74 C107.01,96.44 107.01,98.50 107.54,99.68 C108.60,101.93 112.74,104.58 114.50,104.33 C115.54,104.16 117.58,102.96 118.29,102.03 C118.96,101.10 119.36,99.05 119.19,98.25 C118.90,97.00 117.79,95.63 117.50,95.62 C116.41,95.59 115.40,95.64 114.45,95.76 C114.12,95.80 113.98,95.89 114.04,96.02" fill="none" stroke="rgb(255, 55, 0)" stroke-width="15.00" stroke-opacity="1.00" stroke-linejoin="round"/>
</g>
</svg>
