<?xml version="1.0" encoding="UTF-8" standalone="no"?>
<!DOCTYPE svg PUBLIC "-//W3C//DTD SVG 1.1//EN" "http://www.w3.org/Graphics/SVG/1.1/DTD/svg11.dtd">
<svg width="208.00" height="172.00" viewBox="0.00 0.00 208.00 172.00" xmlns="http://www.w3.org/2000/svg" xmlns:xlink="http://www.w3.org/1999/xlink">
<g stroke-linecap="round" id="5">
<path d="M104.99,71.14 C106.54,71.17 110.02,72.28 111.04,73.13 C112.80,74.69 116.26,83.84 116.79,86.65 C117.46,90.48 116.71,98.35 115.74,103.32 C115.26,105.55 113.90,109.01 112.82,110.47 C112.04,111.47 108.47,113.57 107.01,114.09 C104.84,114.80 102.24,114.45 100.13,113.21 C99.41,112.75 95.77,109.99 95.37,109.35 C94.10,107.24 93.00,98.12 92.86,95.08 C92.60,88.74 94.93,77.36 96.15,75.13 C96.95,73.74 99.35,72.23 101.39,71.67 C102.76,71.33 103.96,71.16 104.99,71.14 Z" fill="none" stroke="rgb(255, 55, 0)" stroke-width="10.00" stroke-opacity="1.00" stroke-linejoin="round"/>
<path d="M103.86,82.01 C103.39,82.20 101.52,83.84 100.55,85.61 C98.76,88.95 98.37,95.85 98.53,96.00 C99.28,96.26 101.22,89.97 101.25,86.74 C101.24,83.06 100.23,80.68 100.10,80.48 C99.53,80.58 97.44,89.32 97.13,94.61 C96.85,99.66 97.71,104.08 98.38,104.57 C100.09,103.91 103.44,89.87 104.59,87.06 C102.29,95.78 103.34,106.35 103.51,107.10 C104.77,107.31 104.88,84.51 105.03,83.00 C105.18,81.63 106.16,79.68 106.16,79.69 C106.09,89.59 110.30,103.52 110.34,103.59 C110.40,103.26 110.61,89.06 110.39,89.74 C110.17,90.43 110.32,91.20 110.13,91.90 C109.96,92.71 110.57,85.81 110.81,85.10 C112.63,85.25 112.84,96.53 112.84,98.38 C112.82,97.83 112.81,97.49 112.81,97.37 C112.81,97.24 112.81,97.16 112.83,97.11" fill="none" stroke="rgb(255, 55, 0)" stroke-width="15.00" stroke-opacity="1.00" stroke-linejoin="round"/>
<path d="M109.77,106.25 C109.77,106.25 104.89,107.50 104.89,107.50" fill="none" stroke="rgb(255, 55, 0)" stroke-width="15.00" stroke-opacity="1.00" stroke-linejoin="round"/>
</g>
</svg>
