<?xml version="1.0" encoding="UTF-8" standalone="no"?>
<!DOCTYPE svg PUBLIC "-//W3C//DTD SVG 1.1//EN" "http://www.w3.org/Graphics/SVG/1.1/DTD/svg11.dtd">
<svg width="208.00" height="172.00" viewBox="0.00 0.00 208.00 172.00" xmlns="http://www.w3.org/2000/svg" xmlns:xlink="http://www.w3.org/1999/xlink">
<g stroke-linecap="round" id="1_Copy_3">
<path d="M103.95,75.80 C106.45,75.83 111.64,78.11 113.40,80.23 C115.20,82.49 117.26,87.94 117.68,91.53 C118.03,94.83 116.88,101.40 115.82,104.24 C114.70,107.14 111.69,111.20 109.24,112.32 C106.49,113.50 101.36,113.51 98.63,112.33 C96.18,111.21 93.56,107.22 92.53,104.10 C91.60,101.22 90.49,94.49 90.75,91.35 C91.07,87.98 92.93,82.56 94.58,80.30 C96.25,78.09 101.40,75.82 103.95,75.80 Z" fill="none" stroke="rgb(255, 55, 0)" stroke-width="10.00" stroke-opacity="1.00" stroke-linejoin="round"/>
<path d="M104.05,79.16 C100.87,80.39 97.11,82.16 95.74,83.27 C94.69,84.16 93.34,86.27 93.08,87.36 C92.80,88.62 93.24,91.18 93.91,92.21 C94.58,93.19 96.87,94.65 98.19,95.06 C99.64,95.48 102.59,95.55 103.91,95.14 C105.12,94.75 106.77,93.41 107.18,92.84 C108.03,91.58 108.65,89.07 108.46,87.71 C108.26,86.46 107.14,84.37 106.39,83.77 C105.62,83.18 103.78,83.10 102.58,83.63 C101.32,84.22 98.72,86.38 97.68,87.75 C95.79,90.33 94.96,95.83 95.86,96.97 C96.34,97.52 98.23,97.82 99.72,97.50 C101.45,97.12 105.23,95.36 106.56,94.19 C107.60,93.27 108.80,91.35 108.84,90.50 C108.87,89.44 106.89,87.89 105.18,87.59 C103.42,87.31 99.35,87.82 97.55,88.57 C95.76,89.34 93.32,91.61 92.54,93.19 C92.20,93.90 91.86,96.22 92.28,97.44 C92.78,98.82 95.10,100.86 96.80,101.35 C98.58,101.82 102.74,101.40 104.80,100.53 C107.00,99.57 109.61,97.07 110.11,96.02 C110.86,94.32 110.26,91.36 109.02,90.19 C107.79,89.06 104.31,88.20 102.51,88.60 C100.76,89.01 97.10,91.85 96.04,94.52 C95.50,95.90 95.27,98.79 95.58,99.99 C95.94,101.28 97.79,102.92 99.10,103.12 C100.40,103.28 102.98,102.44 104.19,101.44 C104.72,100.98 105.92,99.05 106.13,97.84 C106.33,96.57 105.71,94.18 105.09,93.36 C104.47,92.60 102.84,92.03 101.94,92.37 C100.93,92.78 99.02,95.00 98.40,96.60 C97.86,98.06 97.72,100.71 97.85,101.42 C98.15,102.91 99.42,104.47 100.53,104.70 C101.69,104.90 104.61,103.94 105.93,102.85 C107.31,101.67 109.02,98.47 109.29,96.68 C109.51,95.12 109.05,92.32 108.58,91.38 C108.17,90.59 107.12,89.85 106.56,89.95 C105.13,90.29 102.84,95.16 103.12,97.94 C103.27,99.15 104.03,101.08 104.57,101.70 C105.09,102.26 106.43,102.76 107.20,102.67 C108.11,102.53 109.90,101.28 110.56,100.19 C111.23,99.03 111.58,96.41 111.27,95.10 C110.95,93.87 109.26,91.04 108.42,90.50 C107.65,90.02 106.43,90.36 106.02,90.76 C104.86,91.97 104.90,96.30 105.96,97.56 C106.88,98.60 110.37,98.82 111.78,97.53 C112.56,96.79 113.46,94.66 113.39,93.56 C113.24,91.58 110.40,89.14 109.13,89.04 C108.48,89.01 107.35,89.58 106.98,90.29 C106.11,92.11 107.90,97.75 109.77,99.51 C110.53,100.21 112.02,100.81 112.80,100.64 C113.67,100.44 115.36,98.99 115.95,97.87 C117.05,95.67 116.20,90.18 115.29,90.14 C114.39,90.11 113.55,90.17 112.76,90.31 C112.49,90.36 112.38,90.47 112.42,90.62" fill="none" stroke="rgb(255, 55, 0)" stroke-width="15.00" stroke-opacity="1.00" stroke-linejoin="round"/>
</g>
</svg>
