<?xml version="1.0" encoding="UTF-8" standalone="no"?>
<!DOCTYPE svg PUBLIC "-//W3C//DTD SVG 1.1//EN" "http://www.w3.org/Graphics/SVG/1.1/DTD/svg11.dtd">
<svg width="208.00" height="172.00" viewBox="0.00 0.00 208.00 172.00" xmlns="http://www.w3.org/2000/svg" xmlns:xlink="http://www.w3.org/1999/xlink">
<g stroke-linecap="round" id="4">
<path d="M105.08,83.08 C106.86,83.10 110.85,83.94 111.97,84.58 C113.59,85.57 118.69,93.65 119.04,94.53 C120.13,97.40 119.91,104.59 119.13,108.57 C118.70,110.44 116.86,112.72 115.10,113.39 C114.36,113.65 96.59,114.28 95.09,114.06 C92.92,113.69 90.86,112.07 90.22,110.12 C89.60,108.04 90.18,97.98 91.18,94.55 C92.20,91.23 95.17,85.41 97.35,84.44 C98.63,83.90 103.32,83.10 105.08,83.08 Z" fill="none" stroke="rgb(255, 55, 0)" stroke-width="10.00" stroke-opacity="1.00" stroke-linejoin="round"/>
<path d="M103.80,92.42 C103.27,92.54 101.15,93.58 100.04,94.71 C98.00,96.82 97.56,101.20 97.74,101.30 C98.60,101.46 100.80,97.47 100.83,95.42 C100.83,93.08 99.67,91.57 99.53,91.45 C98.88,91.51 96.50,97.06 96.15,100.42 C95.83,103.62 96.81,106.42 97.57,106.74 C97.83,106.68 98.93,105.85 99.76,104.73 C100.75,103.34 103.72,96.89 104.64,95.62 C104.64,95.62 103.40,108.34 103.40,108.34 C103.58,108.36 104.47,105.86 104.75,103.02 C104.92,101.25 104.96,93.95 105.14,93.05 C105.34,92.13 106.42,90.94 106.41,90.95 C106.33,97.90 111.09,106.00 111.17,106.11 C111.17,106.11 111.70,94.38 111.70,94.38 C112.44,94.41 114.09,98.34 114.02,102.81 C114.00,102.46 113.98,102.24 113.98,102.16 C113.98,102.08 113.98,102.03 114.00,102.00" fill="none" stroke="rgb(255, 55, 0)" stroke-width="15.00" stroke-opacity="1.00" stroke-linejoin="round"/>
</g>
</svg>
