<?xml version="1.0" encoding="UTF-8" standalone="no"?>
<!DOCTYPE svg PUBLIC "-//W3C//DTD SVG 1.1//EN" "http://www.w3.org/Graphics/SVG/1.1/DTD/svg11.dtd">
<svg width="208.00" height="172.00" viewBox="0.00 0.00 208.00 172.00" xmlns="http://www.w3.org/2000/svg" xmlns:xlink="http://www.w3.org/1999/xlink">
<g stroke-linecap="round" id="1_Copy">
<path d="M103.84,83.77 C107.21,83.69 112.95,84.87 115.67,86.77 C116.68,87.50 119.72,90.22 120.33,91.09 C122.00,93.51 124.28,102.74 124.25,103.58 C124.16,104.95 122.88,107.34 121.72,108.45 C119.62,110.36 113.29,114.00 110.30,114.53 C108.10,114.90 99.92,114.55 96.89,114.01 C93.47,113.36 87.09,109.70 85.53,107.65 C84.77,106.60 83.95,104.13 83.85,102.72 C83.73,100.06 86.24,93.92 88.03,91.43 C89.86,88.96 94.52,85.39 97.53,84.62 C98.80,84.31 102.53,83.82 103.84,83.77 Z" fill="none" stroke="rgb(255, 55, 0)" stroke-width="10.00" stroke-opacity="1.00" stroke-linejoin="round"/>
<path d="M103.96,84.69 C100.12,85.77 95.60,87.30 93.95,88.27 C92.68,89.05 91.06,90.88 90.75,91.83 C90.41,92.93 90.94,95.16 91.75,96.06 C92.56,96.91 95.32,98.18 96.90,98.54 C100.60,99.32 106.34,98.02 107.72,96.61 C108.76,95.51 109.50,93.32 109.27,92.14 C109.03,91.05 107.67,89.23 106.78,88.71 C105.85,88.19 103.64,88.12 102.18,88.59 C100.67,89.09 97.54,90.98 96.29,92.18 C95.12,93.33 93.70,95.85 93.45,97.01 C93.24,98.06 93.59,99.75 94.10,100.20 C94.67,100.69 96.95,100.94 98.75,100.67 C100.82,100.34 105.38,98.80 106.98,97.78 C108.23,96.98 109.67,95.31 109.73,94.57 C109.76,93.64 107.37,92.29 105.32,92.03 C103.20,91.79 98.30,92.23 96.13,92.88 C93.97,93.56 91.04,95.54 90.09,96.91 C89.68,97.53 89.28,99.55 89.78,100.62 C90.38,101.81 93.18,103.59 95.23,104.02 C97.37,104.43 102.38,104.06 104.86,103.31 C107.51,102.47 110.65,100.29 111.26,99.37 C112.15,97.89 111.43,95.32 109.95,94.30 C108.47,93.32 104.27,92.56 102.11,92.91 C100.00,93.27 95.58,95.75 94.31,98.07 C93.67,99.27 93.39,101.79 93.76,102.84 C94.19,103.96 96.42,105.39 98.00,105.56 C99.56,105.70 102.67,104.97 104.12,104.10 C104.76,103.69 106.21,102.02 106.46,100.96 C106.70,99.85 105.96,97.77 105.21,97.06 C104.47,96.40 102.50,95.91 101.42,96.20 C100.20,96.56 97.90,98.49 97.16,99.89 C96.51,101.16 96.34,103.46 96.49,104.08 C96.85,105.38 98.39,106.74 99.72,106.94 C101.12,107.11 104.63,106.28 106.22,105.33 C107.88,104.30 109.94,101.51 110.27,99.96 C110.53,98.60 109.98,96.15 109.42,95.33 C108.92,94.64 107.66,94.00 106.98,94.09 C106.23,94.22 104.57,95.42 103.92,96.40 C103.23,97.48 102.67,99.86 102.84,101.05 C103.01,102.10 103.94,103.79 104.59,104.32 C105.21,104.81 106.82,105.25 107.75,105.17 C108.85,105.05 111.00,103.96 111.79,103.01 C112.60,101.99 113.03,99.71 112.65,98.57 C112.27,97.51 110.23,95.04 109.22,94.57 C108.30,94.15 106.82,94.44 106.33,94.79 C104.93,95.85 104.98,99.62 106.26,100.72 C107.36,101.62 111.56,101.81 113.27,100.69 C114.21,100.04 115.29,98.19 115.21,97.23 C115.02,95.51 111.60,93.39 110.08,93.30 C109.29,93.27 107.93,93.77 107.49,94.39 C107.01,95.12 107.01,97.28 107.54,98.52 C108.60,100.89 112.74,103.67 114.50,103.40 C115.54,103.22 117.58,101.96 118.29,100.99 C118.96,100.01 119.36,97.86 119.19,97.02 C118.90,95.70 117.79,94.27 117.50,94.26 C116.41,94.23 115.40,94.28 114.45,94.40 C114.12,94.45 113.98,94.54 114.04,94.68" fill="none" stroke="rgb(255, 55, 0)" stroke-width="15.00" stroke-opacity="1.00" stroke-linejoin="round"/>
</g>
</svg>
