<?xml version="1.0" encoding="UTF-8" standalone="no"?>
<!DOCTYPE svg PUBLIC "-//W3C//DTD SVG 1.1//EN" "http://www.w3.org/Graphics/SVG/1.1/DTD/svg11.dtd">
<svg width="208.00" height="172.00" viewBox="0.00 0.00 208.00 172.00" xmlns="http://www.w3.org/2000/svg" xmlns:xlink="http://www.w3.org/1999/xlink">
<g stroke-linecap="round" id="1">
<path d="M104.51,66.30 C106.00,66.32 109.29,67.68 110.36,68.72 C111.40,69.79 112.76,73.08 112.78,74.57 C112.76,76.06 111.40,79.34 110.36,80.41 C109.29,81.45 106.00,82.81 104.51,82.83 C103.02,82.81 99.74,81.45 98.67,80.41 C97.63,79.34 96.27,76.06 96.24,74.57 C96.27,73.08 97.63,69.79 98.67,68.72 C99.74,67.68 103.02,66.32 104.51,66.30 Z" fill="none" stroke="rgb(0, 234, 255)" stroke-width="9.01" stroke-opacity="1.00" stroke-linejoin="round"/>
<path d="M104.10,85.12 C105.82,85.15 109.88,86.24 111.38,87.08 C112.86,87.95 115.84,90.93 116.71,92.41 C117.55,93.91 118.64,97.97 118.66,99.69 C118.64,101.41 117.55,105.47 116.71,106.97 C115.84,108.45 112.86,111.42 111.38,112.30 C109.88,113.14 105.82,114.23 104.10,114.25 C102.38,114.23 98.32,113.14 96.82,112.30 C95.34,111.42 92.37,108.45 91.49,106.97 C90.65,105.47 89.56,101.41 89.54,99.69 C89.56,97.97 90.65,93.91 91.49,92.41 C92.37,90.93 95.34,87.95 96.82,87.08 C98.32,86.24 102.38,85.15 104.10,85.12 Z" fill="none" stroke="rgb(0, 234, 255)" stroke-width="9.01" stroke-opacity="1.00" stroke-linejoin="round"/>
</g>
</svg>
