<?xml version="1.0" encoding="UTF-8" standalone="no"?>
<!DOCTYPE svg PUBLIC "-//W3C//DTD SVG 1.1//EN" "http://www.w3.org/Graphics/SVG/1.1/DTD/svg11.dtd">
<svg width="208.00" height="172.00" viewBox="0.00 0.00 208.00 172.00" xmlns="http://www.w3.org/2000/svg" xmlns:xlink="http://www.w3.org/1999/xlink">
<g stroke-linecap="round" id="1_Copy_3">
<path d="M108.94,78.40 C110.95,79.37 114.00,81.39 115.03,82.50 C116.14,83.76 117.37,86.78 116.96,87.59 C116.59,88.25 113.19,89.59 112.36,89.91 C109.55,90.86 107.94,91.14 105.95,90.83 C103.45,90.41 100.43,89.19 98.77,87.90 C96.87,86.35 95.17,84.13 95.12,82.92 C95.12,81.72 96.78,79.66 98.60,78.37 C101.55,76.42 106.62,77.32 108.94,78.40 Z" fill="none" stroke="rgb(0, 234, 255)" stroke-width="10.00" stroke-opacity="1.00" stroke-linejoin="round"/>
<path d="M113.99,95.45 C116.33,95.98 123.45,99.11 125.36,100.90 C126.60,102.13 126.34,103.77 124.77,105.08 C123.77,105.88 116.27,111.67 114.43,112.34 C112.45,113.03 105.20,113.13 102.16,113.18 C100.33,113.16 97.44,112.66 95.34,111.97 C92.98,111.17 90.62,109.77 89.05,108.27 C86.89,106.15 82.42,101.01 82.37,98.80 C82.39,97.62 82.85,96.65 83.75,95.90 C85.02,94.94 110.95,94.80 113.99,95.45 Z" fill="none" stroke="rgb(0, 234, 255)" stroke-width="10.00" stroke-opacity="1.00" stroke-linejoin="round"/>
</g>
</svg>
